<?xml version="1.0" encoding="UTF-8"?>
<svg width="128" height="128" viewBox="0 0 128 128" version="1.1" xmlns="http://www.w3.org/2000/svg">
    <!-- 渐变定义 -->
    <defs>
        <!-- 背景渐变 -->
        <radialGradient id="bgGradient" cx="50%" cy="50%" r="70%" fx="50%" fy="50%">
            <stop offset="0%" style="stop-color:#2C3E50;stop-opacity:1" />
            <stop offset="100%" style="stop-color:#1A202C;stop-opacity:1" />
        </radialGradient>
        
        <!-- 发光效果 -->
        <filter id="glow" x="-50%" y="-50%" width="200%" height="200%">
            <feGaussianBlur in="SourceGraphic" stdDeviation="2" result="blur" />
            <feColorMatrix in="blur" type="matrix" values="1 0 0 0 1   0 1 0 0 0.8   0 0 1 0 0  0 0 0 15 -6" result="glow" />
            <feMerge>
                <feMergeNode in="glow" />
                <feMergeNode in="SourceGraphic" />
            </feMerge>
        </filter>
    </defs>

    <!-- 背景 -->
    <circle cx="64" cy="64" r="60" fill="url(#bgGradient)" />
    
    <!-- 主要设计元素 -->
    <g transform="translate(64 64)" filter="url(#glow)">
        <!-- 六边形框架 -->
        <path d="M0,-40 L34.64,-20 L34.64,20 L0,40 L-34.64,20 L-34.64,-20 Z" 
              fill="none" 
              stroke="#FFD700" 
              stroke-width="2"
              opacity="0.3"/>
              
        <!-- 内部六边形 -->
        <path d="M0,-30 L26,-15 L26,15 L0,30 L-26,15 L-26,-15 Z" 
              fill="none" 
              stroke="#FFD700" 
              stroke-width="2"
              opacity="0.5"/>
        
        <!-- 动态连接线 -->
        <g>
            <!-- 上方弧线 -->
            <path d="M-20,-20 Q0,-35 20,-20" 
                  fill="none" 
                  stroke="#FFD700" 
                  stroke-width="3"
                  stroke-linecap="round"/>
            
            <!-- 下方弧线 -->
            <path d="M-20,20 Q0,35 20,20" 
                  fill="none" 
                  stroke="#FFD700" 
                  stroke-width="3"
                  stroke-linecap="round"/>
                  
            <!-- 中间连接线 -->
            <path d="M-15,0 L15,0" 
                  stroke="#FFD700" 
                  stroke-width="3"
                  stroke-linecap="round"/>
        </g>
        
        <!-- 装饰点 -->
        <g>
            <circle cx="-20" cy="-20" r="4" fill="#FFD700"/>
            <circle cx="20" cy="-20" r="4" fill="#FFD700"/>
            <circle cx="-20" cy="20" r="4" fill="#FFD700"/>
            <circle cx="20" cy="20" r="4" fill="#FFD700"/>
            
            <!-- 中心点 -->
            <circle cx="0" cy="0" r="6" fill="#FFD700"/>
            <circle cx="0" cy="0" r="3" fill="#FFA500"/>
        </g>
    </g>
    
    <!-- 外部装饰环 -->
    <g transform="translate(64 64)">
        <!-- 旋转的点 -->
        <g transform="rotate(45)">
            <circle cx="0" cy="-45" r="2" fill="#FFD700" opacity="0.8"/>
            <circle cx="0" cy="45" r="2" fill="#FFD700" opacity="0.8"/>
            <circle cx="45" cy="0" r="2" fill="#FFD700" opacity="0.8"/>
            <circle cx="-45" cy="0" r="2" fill="#FFD700" opacity="0.8"/>
        </g>
        
        <!-- 虚线圆环 -->
        <circle cx="0" cy="0" r="50" 
                fill="none" 
                stroke="#FFD700" 
                stroke-width="1"
                stroke-dasharray="2,4"
                opacity="0.3"/>
    </g>
</svg> 